<?xml version="1.0" encoding="utf-8"?>
<!-- Generator: Adobe Illustrator 15.0.0, SVG Export Plug-In . SVG Version: 6.00 Build 0)  -->
<!DOCTYPE svg PUBLIC "-//W3C//DTD SVG 1.1//EN" "http://www.w3.org/Graphics/SVG/1.1/DTD/svg11.dtd">
<svg version="1.1" id="Layer_1" xmlns="http://www.w3.org/2000/svg" xmlns:xlink="http://www.w3.org/1999/xlink" x="0px" y="0px"
	 width="140.184px" height="28px" viewBox="0 0 140.184 28" enable-background="new 0 0 140.184 28" xml:space="preserve">
<line fill="none" stroke="#3A32DE" stroke-width="2.988" x1="0.099" y1="25.404" x2="140.183" y2="25.404"/>
<g enable-background="new    ">
	<path fill="#3A32DE" d="M10.905,5.182h-0.033l-3.408,8.51H6.039L2.632,5.351H2.598v8.341h-2.44V0.943h2.898l3.695,8.68l3.695-8.68
		h2.899v12.748h-2.441V5.182z"/>
</g>
<g enable-background="new    ">
	<path fill="#3A32DE" d="M17.792,0.842c0.729,0,1.424,0.627,1.424,1.406c0,0.746-0.645,1.441-1.424,1.441
		c-0.814,0-1.424-0.729-1.424-1.407C16.368,1.57,16.978,0.842,17.792,0.842z M16.571,4.978h2.441v8.714h-2.441V4.978z"/>
</g>
<g enable-background="new    ">
	<path fill="#3A32DE" d="M26.829,8.317c-0.052-1.221-0.764-1.509-1.407-1.509c-1.509,0-1.695,1.594-1.695,2.713
		c0,1.152,0.407,2.44,1.678,2.44c0.934,0,1.407-0.576,1.544-1.424l2.39,0.085c-0.373,1.916-1.526,3.306-3.865,3.306
		c-2.848,0-4.289-1.831-4.289-4.51c0-2.797,1.594-4.679,4.238-4.679c2.594,0,3.831,1.628,3.95,3.476L26.829,8.317z"/>
</g>
<g enable-background="new    ">
	<path fill="#3A32DE" d="M37.292,8.386c0-1.255-0.764-1.679-1.525-1.679c-0.982,0-1.594,0.848-1.594,2.034v4.95h-2.441V0.943h2.441
		v5.17h0.034c0.678-1.051,1.524-1.373,2.475-1.373c2.104,0,3.052,1.356,3.052,3.035v5.916h-2.44L37.292,8.386L37.292,8.386z"/>
</g>
<g enable-background="new    ">
	<path fill="#3A32DE" d="M47.788,12.556h-0.034c-0.813,1.068-1.966,1.373-2.983,1.373c-1.373,0-3.052-0.678-3.052-2.661
		c0-0.933,0.305-2.476,3.713-2.679l2.255-0.136V8.046c0-1.034-0.645-1.542-1.712-1.542c-1,0-1.594,0.508-1.645,1.288h-2.34
		c0.085-1.339,1.033-3.052,4.085-3.052c2.152,0,3.949,0.814,3.949,2.814v5.052c0,0.458,0.052,0.763,0.119,1.085h-2.355V12.556z
		 M47.686,9.895l-2.035,0.186c-1.118,0.103-1.491,0.441-1.491,1.068c0,0.78,0.712,1.018,1.525,1.018c0.764,0,2-0.424,2-1.476
		L47.686,9.895L47.686,9.895z"/>
</g>
<g enable-background="new    ">
	<path fill="#3A32DE" d="M54.843,10.029c0.102,1.018,0.729,2.035,2.034,2.035c0.746,0,1.407-0.356,1.746-1.034l2.374,0.187
		c-0.594,1.779-2.188,2.712-4.238,2.712c-2.627,0-4.458-1.797-4.458-4.577c0-2.814,1.831-4.611,4.458-4.611
		c2.628,0,4.458,1.797,4.458,4.611v0.678h-6.374V10.029z M58.776,8.47c-0.085-0.848-0.729-1.864-1.898-1.864
		c-1.271,0-1.898,0.881-2.034,1.864H58.776z"/>
</g>
<g enable-background="new    ">
	<path fill="#3A32DE" d="M63.746,0.943h2.44v12.748h-2.44V0.943z"/>
</g>
<g enable-background="new    ">
	<path fill="#3A32DE" d="M81.768,11.03h-4.661l-0.831,2.661h-2.747l4.646-12.748h2.679l4.577,12.748h-2.798L81.768,11.03z
		 M79.463,4.012H79.43l-1.611,4.95h3.272L79.463,4.012z"/>
</g>
<g enable-background="new    ">
	<path fill="#3A32DE" d="M87.604,4.978h2.339v1.221h0.035c0.694-1.034,1.711-1.458,2.83-1.458c2.425,0,4.068,2.188,4.068,4.611
		s-1.525,4.577-4.034,4.577c-1.118,0-1.949-0.356-2.763-1.424h-0.034v4.983h-2.441V4.978z M92.131,6.707
		c-1.391,0-2.17,1.152-2.17,2.61c0,1.306,0.712,2.543,2.238,2.543c1.405,0,2.135-1.254,2.135-2.576
		C94.334,7.91,93.572,6.707,92.131,6.707z"/>
	<path fill="#3A32DE" d="M98.915,4.978h2.339v1.221h0.035c0.693-1.034,1.711-1.458,2.83-1.458c2.425,0,4.067,2.188,4.067,4.611
		s-1.524,4.577-4.034,4.577c-1.117,0-1.948-0.356-2.763-1.424h-0.034v4.983h-2.44V4.978z M103.441,6.707
		c-1.391,0-2.17,1.152-2.17,2.61c0,1.306,0.712,2.543,2.238,2.543c1.406,0,2.135-1.254,2.135-2.576
		C105.644,7.91,104.883,6.707,103.441,6.707z"/>
</g>
<g enable-background="new    ">
	<path fill="#3A32DE" d="M115.734,12.556H115.7c-0.729,1.051-1.594,1.373-2.577,1.373c-2.103,0-3.052-1.356-3.052-3.034V4.978h2.441
		v5.307c0,1.254,0.762,1.678,1.525,1.678c0.981,0,1.594-0.848,1.594-2.034v-4.95h2.441v8.714h-2.341L115.734,12.556L115.734,12.556z
		"/>
	<path fill="#3A32DE" d="M125.976,8.386c0-1.255-0.764-1.679-1.524-1.679c-0.984,0-1.595,0.848-1.595,2.034v4.95h-2.44V0.943h2.44
		v5.17h0.033c0.678-1.051,1.525-1.373,2.476-1.373c2.104,0,3.053,1.356,3.053,3.035v5.916h-2.441L125.976,8.386L125.976,8.386z"/>
</g>
<g enable-background="new    ">
	<path fill="#3A32DE" d="M137.676,8.386c0-1.255-0.762-1.679-1.525-1.679c-0.981,0-1.594,0.848-1.594,2.034v4.95h-2.439V4.978h2.339
		v1.136h0.034c0.729-1.051,1.594-1.373,2.576-1.373c2.103,0,3.052,1.356,3.052,3.035v5.916h-2.441L137.676,8.386L137.676,8.386z"/>
</g>
</svg>
